<svg width="132" height="34" viewBox="0 0 132 34" fill="none" xmlns="http://www.w3.org/2000/svg">
<path d="M5.11207 6.14842L6.57204 6.99355C6.84185 7.13159 7.14017 7.2046 7.44321 7.20673C7.74624 7.20886 8.04556 7.14006 8.31725 7.00581L9.79714 6.16666C10.0529 6.00389 10.2665 5.78283 10.4204 5.52162C10.5743 5.26041 10.6642 4.96645 10.6826 4.66381L10.6962 2.96024C10.6816 2.65803 10.5962 2.36344 10.4469 2.10027C10.2975 1.8371 10.0884 1.61268 9.83646 1.44512L8.37764 0.581171C8.10847 0.441735 7.81022 0.367637 7.50707 0.364855C7.20393 0.362073 6.90436 0.430671 6.63265 0.565143L5.15284 1.40431C4.89748 1.56755 4.68419 1.7887 4.53035 2.04984C4.37648 2.31094 4.28633 2.6047 4.26726 2.90715L4.25377 4.61072C4.26441 4.91681 4.34781 5.21592 4.49706 5.48332C4.64631 5.75075 4.85715 5.97876 5.11207 6.14842Z" fill="white"/>
<path d="M14.0618 8.90259L12.603 8.03864C12.3338 7.90068 12.0361 7.82775 11.7337 7.82565C11.4313 7.82355 11.1326 7.89239 10.8615 8.0266L9.36663 8.86484C9.11211 9.02898 8.89945 9.25035 8.7457 9.51131C8.59195 9.77223 8.50131 10.0655 8.48109 10.3677L8.46763 12.0713C8.48221 12.3735 8.56759 12.6681 8.71691 12.9313C8.86626 13.1944 9.07532 13.4189 9.32727 13.5864L10.7872 14.4315C11.0558 14.5709 11.3534 14.645 11.656 14.6477C11.9585 14.6505 12.2574 14.5818 12.5285 14.4473L14.0121 13.6084C14.2667 13.4435 14.4794 13.2214 14.6332 12.9598C14.7869 12.6983 14.8776 12.4045 14.8978 12.1018L14.9111 10.4019C14.8947 10.1035 14.8095 9.81284 14.6622 9.55274C14.5148 9.29264 14.3094 9.07014 14.0618 8.90259Z" fill="white"/>
<path d="M18.2707 16.3483L16.8107 15.5032C16.5415 15.3637 16.2433 15.2896 15.9402 15.2869C15.637 15.2841 15.3375 15.3527 15.0658 15.4872L13.5859 16.3263C13.331 16.49 13.118 16.7113 12.9642 16.9723C12.8104 17.2333 12.72 17.5268 12.7004 17.8292L12.6869 19.5328C12.7049 19.8303 12.7913 20.1198 12.9393 20.3785C13.0873 20.6373 13.293 20.8584 13.5404 21.0248L15.0004 21.8699C15.2702 22.0079 15.5685 22.081 15.8715 22.0831C16.1746 22.0852 16.4739 22.0164 16.7456 21.8822L18.2292 21.0433C18.4839 20.8796 18.6965 20.6582 18.8497 20.397C19.0028 20.1359 19.0924 19.8424 19.111 19.5402L19.1339 17.8674C19.1199 17.5641 19.0344 17.2684 18.8843 17.0044C18.7344 16.7405 18.5241 16.5156 18.2707 16.3483Z" fill="white"/>
<path d="M7.43271 11.4525L7.44201 10.1265C7.46223 9.82435 7.55284 9.53108 7.70662 9.27016C7.86037 9.0092 8.073 8.78783 8.32754 8.6237L11.2127 6.98995C11.4837 6.85573 11.7824 6.7869 12.0849 6.78899C12.3873 6.79109 12.685 6.86406 12.9542 7.00198L14.0995 7.6767C14.3687 7.81614 14.667 7.89027 14.9701 7.89305C15.2733 7.89584 15.5728 7.8272 15.8445 7.69273L17.3246 6.8498C17.5798 6.68635 17.7929 6.46515 17.9467 6.20405C18.1005 5.94299 18.1908 5.64939 18.2101 5.34695L18.2234 3.64715C18.2094 3.3443 18.1243 3.04897 17.975 2.78512C17.8257 2.52124 17.6164 2.29624 17.364 2.12827L15.9051 1.26432C15.6354 1.12632 15.337 1.05331 15.034 1.05118C14.7309 1.04905 14.4316 1.11785 14.1599 1.25206L12.6509 2.07431C12.3962 2.23802 12.1836 2.4594 12.0304 2.72054C11.8772 2.98168 11.7877 3.27522 11.7691 3.57739L11.756 4.90308C11.7375 5.20529 11.6479 5.49882 11.4947 5.75996C11.3415 6.0211 11.1289 6.24249 10.8743 6.40615L7.98912 8.0399C7.71741 8.17438 7.41787 8.24301 7.11473 8.24023C6.81154 8.23745 6.51333 8.16331 6.24413 8.02388L5.10228 7.35315C4.83308 7.21371 4.53486 7.13962 4.23168 7.13683C3.92853 7.13405 3.629 7.20265 3.35729 7.33712L1.87745 8.17628C1.62208 8.33953 1.40883 8.56068 1.25495 8.82182C1.10108 9.08296 1.01097 9.37668 0.991906 9.67913L0.97841 11.3827C0.992079 11.6856 1.07707 11.9811 1.22638 12.245C1.37572 12.5089 1.5852 12.7339 1.83786 12.9016L3.29783 13.7467C3.56761 13.8847 3.86593 13.9577 4.16896 13.9599C4.47199 13.962 4.77135 13.8932 5.04305 13.759L6.52289 12.9198C6.778 12.7626 6.99296 12.5482 7.1509 12.2935C7.3088 12.0388 7.40528 11.7509 7.43271 11.4525Z" fill="white"/>
<path d="M22.4166 11.0919C22.4014 10.7893 22.3158 10.4944 22.1666 10.2307C22.0174 9.96703 21.8087 9.7418 21.5571 9.57302L20.0971 8.72789C19.8273 8.59015 19.5289 8.5173 19.226 8.51517C18.923 8.51304 18.6237 8.58169 18.3519 8.71563L16.872 9.55479C16.6171 9.71848 16.4042 9.93973 16.2504 10.2008C16.0966 10.4618 16.0062 10.7553 15.9865 11.0576L15.977 12.3873C15.9574 12.6896 15.867 12.9831 15.7132 13.2442C15.5594 13.5052 15.3464 13.7265 15.0914 13.8902L12.2103 15.5204C11.9386 15.6546 11.6393 15.7234 11.3362 15.7213C11.0332 15.7191 10.7349 15.6461 10.4651 15.5081L9.31967 14.8334C9.05053 14.6954 8.75281 14.6225 8.45038 14.6204C8.14795 14.6183 7.84927 14.6871 7.57822 14.8214L6.08354 15.6558C5.82903 15.82 5.61641 16.0413 5.46262 16.3023C5.30888 16.5632 5.21826 16.8565 5.19804 17.1587L5.18451 18.8622C5.19913 19.1645 5.28451 19.4591 5.43383 19.7222C5.58318 19.9854 5.79224 20.2098 6.04422 20.3774L7.50304 21.2413C7.77157 21.3807 8.06918 21.4547 8.37172 21.4575C8.6743 21.4602 8.9732 21.3916 9.24427 21.2571L10.7278 20.4182C10.9822 20.2538 11.1947 20.0324 11.3484 19.7715C11.5021 19.5106 11.5929 19.2174 11.6134 18.9153L11.6229 17.5856C11.6423 17.2832 11.7325 16.9896 11.8863 16.7286C12.0402 16.4675 12.2533 16.2463 12.5084 16.0828L15.3898 14.4488C15.6615 14.3144 15.9611 14.2457 16.2643 14.2485C16.5674 14.2513 16.8656 14.3254 17.1348 14.4648L18.2767 15.1356C18.5459 15.275 18.8441 15.3491 19.1473 15.3519C19.4504 15.3547 19.75 15.2861 20.0217 15.1516L21.5053 14.3127C21.7598 14.1487 21.9722 13.9273 22.1253 13.6662C22.2785 13.4051 22.3681 13.1117 22.387 12.8096L22.4166 11.0919Z" fill="white"/>
<path d="M27.8872 4.61352L33.5315 4.95873L35.5235 15.8348L38.8261 5.28257L44.7201 5.64306L38.2996 22.4972L31.9311 22.1077L27.8872 4.61352Z" fill="white"/>
<path d="M49.1982 23.3643C47.7997 23.2788 46.7366 22.7626 46.009 21.8156C45.2815 20.8687 44.9651 19.621 45.0598 18.0725L45.5302 10.3803L50.8249 10.7042L50.3682 18.1716C50.3447 18.5546 50.4263 18.8604 50.6129 19.089C50.8171 19.3021 51.0857 19.4188 51.4187 19.4391C51.7517 19.4595 52.0991 19.3805 52.461 19.2021L52.5234 22.6903C52.1398 22.951 51.6437 23.1379 51.0351 23.2511C50.4432 23.3653 49.8309 23.403 49.1982 23.3643ZM48.2921 8.66916C47.5096 8.6213 46.8584 8.33914 46.3385 7.82269C45.8362 7.29061 45.607 6.6666 45.6508 5.95066C45.6946 5.23472 46.0143 4.65264 46.6099 4.20442C47.2055 3.7562 47.8696 3.5545 48.6022 3.5993C49.3681 3.64615 50.0105 3.93612 50.5294 4.46922C51.0649 5.00333 51.3118 5.61171 51.2701 6.29435C51.2253 7.02694 50.9051 7.61735 50.3094 8.06557C49.7138 8.51379 49.0414 8.71499 48.2921 8.66916Z" fill="white"/>
<path d="M54.6911 11.1161L59.9608 11.4384L59.805 13.9858C60.248 13.0269 60.8084 12.3342 61.4863 11.9078C62.1818 11.4656 62.9708 11.2716 63.8532 11.3255L64.3285 15.4407C62.7468 15.344 61.5706 15.4475 60.8 15.7513C60.047 16.0395 59.6481 16.5499 59.6033 17.2825L59.2062 23.7759L53.9365 23.4536L54.6911 11.1161Z" fill="white"/>
<path d="M71.6386 24.7369C70.24 24.6513 69.008 24.3002 67.9428 23.6836C66.8941 23.0679 66.0913 22.2584 65.5344 21.2551C64.995 20.2361 64.7641 19.0939 64.8415 17.8285C64.9189 16.5631 65.2951 15.4664 65.9702 14.5384C66.6464 13.5937 67.5418 12.8881 68.6567 12.4215C69.7881 11.9559 71.0532 11.7659 72.4517 11.8515C73.867 11.938 75.0989 12.2891 76.1475 12.9047C77.2138 13.5048 78.0171 14.3059 78.5575 15.3083C79.0978 16.3106 79.3293 17.4445 79.2519 18.7099C79.1735 19.9919 78.7962 21.1053 78.1201 22.0499C77.4616 22.9789 76.5661 23.6846 75.4336 24.1668C74.3188 24.6334 73.0538 24.8234 71.6386 24.7369ZM71.9176 20.9937C72.6003 21.0355 73.1733 20.8198 73.6368 20.3468C74.1179 19.8582 74.3829 19.2142 74.4318 18.4151C74.4806 17.6159 74.2956 16.9528 73.8766 16.4258C73.4753 15.8832 72.9333 15.591 72.2506 15.5492C71.568 15.5075 70.9861 15.7309 70.505 16.2196C70.0416 16.6926 69.7854 17.3287 69.7365 18.1279C69.6876 18.9271 69.8639 19.598 70.2652 20.1406C70.6842 20.6676 71.235 20.952 71.9176 20.9937Z" fill="white"/>
<path d="M87.4584 31.2445C86.5427 31.1885 85.6742 31.0434 84.8529 30.8094L85.4786 27.1376C86.1218 27.2772 86.7181 27.3638 87.2676 27.3974C88.2998 27.4605 89.1012 27.2004 89.6717 26.6169C90.2412 26.0501 90.6196 25.0538 90.8071 23.6281C89.7402 24.9499 88.1995 25.5492 86.1849 25.426C85.086 25.3588 84.0877 25.0136 83.1899 24.3905C82.3088 23.7684 81.623 22.9577 81.1326 21.9584C80.6589 20.9601 80.4572 19.8866 80.5275 18.7378C80.5987 17.5723 80.9303 16.523 81.5222 15.5899C82.115 14.6401 82.8867 13.9102 83.837 13.4001C84.804 12.8911 85.837 12.6701 86.9359 12.7373C87.9515 12.7995 88.8177 13.1198 89.5343 13.6985C90.2686 14.2614 90.7253 14.9913 90.9045 15.888L91.0817 12.9909L96.3513 13.3132L95.7693 22.8286C95.5911 25.7423 94.7902 27.9076 93.3666 29.3247C91.9586 30.7593 89.9892 31.3993 87.4584 31.2445ZM88.0373 21.7791C88.7033 21.8198 89.292 21.6219 89.8034 21.1852C90.3157 20.7319 90.6084 20.1816 90.6815 19.5343L90.6937 19.3345C90.6991 18.6997 90.4668 18.1257 89.9968 17.6123C89.5435 17.0999 88.9922 16.8239 88.3429 16.7842C87.6602 16.7424 87.0622 16.9565 86.5488 17.4265C86.0364 17.8798 85.7594 18.4478 85.7176 19.1304C85.6759 19.813 85.8811 20.4189 86.3334 20.9479C86.7867 21.4603 87.3547 21.7373 88.0373 21.7791Z" fill="white"/>
<path d="M103.613 26.6925C102.531 26.6263 101.532 26.2811 100.618 25.657C99.721 25.0172 99.0197 24.1889 98.5137 23.1719C98.0087 22.1383 97.7933 21.0138 97.8677 19.7983C97.941 18.5995 98.2902 17.5346 98.9154 16.6036C99.5416 15.6558 100.346 14.9363 101.329 14.4449C102.311 13.9535 103.335 13.7404 104.401 13.8056C105.267 13.8585 106.051 14.1488 106.754 14.6765C107.474 15.2051 107.996 15.964 108.32 16.9531L108.497 14.0561L113.741 14.3768L112.966 27.064L107.721 26.7432L107.863 24.4206C106.928 26.0513 105.511 26.8086 103.613 26.6925ZM105.477 22.8458C106.143 22.8865 106.724 22.688 107.219 22.2504C107.731 21.797 108.024 21.2467 108.097 20.5994L108.109 20.3996C108.116 19.7316 107.884 19.1492 107.414 18.6525C106.959 18.1567 106.416 17.8895 105.783 17.8508C105.084 17.8081 104.469 18.0212 103.939 18.4901C103.427 18.9434 103.15 19.5114 103.108 20.194C103.065 20.8933 103.279 21.4997 103.749 22.0131C104.219 22.5265 104.795 22.804 105.477 22.8458Z" fill="white"/>
<path d="M116.25 14.8812L121.27 15.1882L121.114 17.7357C122.198 15.8633 123.789 14.9913 125.886 15.1197C127.485 15.2174 128.698 15.8682 129.527 17.072C130.374 18.2602 130.735 19.8616 130.612 21.8763L130.23 28.1199L124.986 27.7992L125.399 21.031C125.443 20.3151 125.319 19.756 125.026 19.3537C124.75 18.9524 124.337 18.735 123.787 18.7013C123.388 18.6769 122.988 18.7862 122.589 19.0291C122.191 19.2555 121.852 19.6024 121.573 20.07C121.31 20.5386 121.16 21.0809 121.122 21.6969L120.765 27.541L115.495 27.2187L116.25 14.8812Z" fill="white"/>
</svg>
