<svg width="124" height="28" viewBox="0 0 124 28" fill="none" xmlns="http://www.w3.org/2000/svg">
<path d="M118.281 23.8421C117.916 23.3815 117.614 22.8739 117.382 22.3328C117.016 21.4844 116.484 20.7187 115.819 20.0807C115.154 19.4427 114.369 18.9453 113.51 18.6179C112.759 18.3325 111.964 18.1822 111.16 18.1739C111.745 18.176 112.307 18.4006 112.734 18.8028C113.161 19.2049 113.421 19.7548 113.463 20.3423C113.596 21.6145 114.079 22.8238 114.855 23.8353C115.632 24.8468 116.673 25.6206 117.862 26.0702C119.222 26.5839 120.708 26.6516 122.108 26.2636C120.596 25.9192 119.245 25.0649 118.281 23.8421Z" fill="white"/>
<path d="M108.783 17.9036C108.914 18.692 109.182 19.4519 109.576 20.149C109.289 19.6427 109.202 19.0479 109.334 18.482C109.467 17.916 109.808 17.42 110.29 17.0917C111.318 16.3479 112.118 15.3352 112.6 14.1664C113.082 12.9976 113.228 11.7187 113.021 10.472C112.785 9.04585 112.098 7.73071 111.061 6.71637C111.518 8.19711 111.452 9.78792 110.874 11.2256C110.653 11.7682 110.361 12.2794 110.006 12.746C109.459 13.4798 109.066 14.3151 108.85 15.2026C108.634 16.0901 108.599 17.0117 108.748 17.913L108.783 17.9036Z" fill="white"/>
<path d="M112.032 20.8194C111.741 21.3267 111.272 21.7038 110.719 21.8752C110.167 22.0465 109.571 21.9995 109.052 21.7435C107.906 21.2247 106.639 21.0403 105.394 21.2109C104.148 21.3815 102.974 21.9004 102.001 22.7096C100.892 23.6366 100.1 24.8971 99.7406 26.3092C100.79 25.1654 102.192 24.4186 103.714 24.1923C104.285 24.1094 104.865 24.0992 105.439 24.1619C106.339 24.2647 107.25 24.1832 108.119 23.9224C108.988 23.6615 109.797 23.2266 110.499 22.6432C111.113 22.131 111.634 21.514 112.039 20.8199L112.032 20.8194Z" fill="white"/>
<path d="M0.0185314 20.1183L3.29021 20.3184L3.77749 12.3515C3.83146 11.469 4.11616 10.7762 4.63159 10.2729C5.14702 9.76965 5.79601 9.54195 6.57855 9.58981C7.37774 9.63869 7.99414 9.94379 8.42774 10.5051C8.87902 11.0508 9.07716 11.7731 9.02217 12.6722L8.53489 20.6392L11.8066 20.8393L12.2939 12.8723C12.3478 11.9899 12.6325 11.2971 13.148 10.7938C13.6634 10.2905 14.3124 10.0628 15.0949 10.1107C15.8941 10.1596 16.5105 10.4647 16.9441 11.026C17.3954 11.5717 17.5935 12.294 17.5385 13.1931L17.0513 21.16L20.3229 21.3601L20.8576 12.619C20.9197 11.6034 20.7494 10.6989 20.3467 9.90548C19.9617 9.09646 19.4078 8.45259 18.685 7.97387C17.9622 7.49515 17.118 7.22626 16.1523 7.1672C15.2532 7.11221 14.4262 7.24546 13.6712 7.56695C12.9329 7.88945 12.3082 8.40274 11.7972 9.10682C11.4383 8.41639 10.8965 7.84846 10.1717 7.40304C9.46355 6.95864 8.6516 6.70843 7.73586 6.65242C6.88673 6.60049 6.11898 6.72065 5.43262 7.01291C4.74626 7.30518 4.20789 7.77361 3.81751 8.41822L3.92138 6.71994L0.8495 6.53205L0.0185314 20.1183Z" fill="white"/>
<path d="M27.1933 22.0812C28.9582 22.1891 30.4091 21.6929 31.5459 20.5926L31.4573 22.0412L34.5542 22.2306L35.1072 13.1897C35.1652 12.2407 34.9752 11.3851 34.5372 10.623C34.0991 9.86087 33.4678 9.25405 32.6431 8.80252C31.836 8.33536 30.8748 8.06766 29.7592 7.99943C28.3939 7.91593 27.1587 8.16626 26.0534 8.75043C24.9481 9.33459 24.163 10.1473 23.6982 11.1884L26.2911 12.6505C26.5785 12.0498 26.9998 11.5825 27.555 11.2488C28.1113 10.8985 28.7473 10.7452 29.4633 10.789C30.2125 10.8348 30.7997 11.0712 31.2248 11.4983C31.6676 11.9098 31.8711 12.4069 31.8355 12.9896L31.808 13.4392L27.7224 13.8411C26.1077 14.0097 24.8945 14.4452 24.0828 15.1476C23.2711 15.85 22.8306 16.7673 22.7614 17.8995C22.688 19.0983 23.0546 20.0733 23.8609 20.8245C24.6673 21.5757 25.7781 21.9946 27.1933 22.0812ZM26.1655 17.9823C26.2236 17.0333 26.9013 16.4731 28.1986 16.3018L31.6552 15.9366L31.6216 16.4861C31.5646 17.4185 31.1916 18.1895 30.5025 18.7991C29.8301 19.4098 28.9777 19.6835 27.9455 19.6204C27.396 19.5868 26.9546 19.4261 26.6213 19.1383C26.2889 18.8339 26.137 18.4485 26.1655 17.9823Z" fill="white"/>
<path d="M37.5781 22.4155L40.8498 22.6156L41.3126 15.0483C41.3757 14.016 41.7077 13.2341 42.3084 12.7027C42.9268 12.1556 43.6938 11.91 44.6096 11.966L45.7834 12.0378L45.9606 9.14076L45.1614 9.09188C44.3289 9.04096 43.5871 9.146 42.9361 9.407C42.2851 9.668 41.7608 10.1791 41.3633 10.9402L41.4809 9.01718L38.4091 8.8293L37.5781 22.4155Z" fill="white"/>
<path d="M53.4696 23.5379C54.019 23.5715 54.5627 23.563 55.1006 23.5123L55.2732 20.6902C54.9538 20.7208 54.6609 20.7279 54.3945 20.7116C53.5953 20.6627 53.0238 20.444 52.6799 20.0553C52.336 19.6666 52.1849 19.1309 52.2267 18.4482L52.5826 12.6292L55.7044 12.8201L55.8831 9.89806L52.7613 9.70712L52.9507 6.61026L49.679 6.41015L49.6149 7.45909C49.5741 8.12508 49.3599 8.6217 48.9723 8.94894C48.5846 9.27618 48.0577 9.41943 47.3917 9.3787L47.142 9.36342L46.9633 12.2855L49.3109 12.429L48.9443 18.423C48.8516 19.9381 49.1956 21.1457 49.9761 22.0457C50.7733 22.9468 51.9378 23.4442 53.4696 23.5379Z" fill="white"/>
<path d="M58.5259 8.53054L61.7976 8.73064L62.0114 5.23419L58.7397 5.03408L58.5259 8.53054ZM57.6017 23.6402L60.8734 23.8403L61.7044 10.2541L58.4327 10.054L57.6017 23.6402Z" fill="white"/>
<path d="M63.8942 24.0251L67.1658 24.2252L67.6531 16.2583C67.7071 15.3758 68.0001 14.6835 68.5322 14.1812C69.0809 13.68 69.7632 13.4544 70.5791 13.5043C71.3949 13.5542 72.0363 13.8608 72.5032 14.4241C72.9878 14.9718 73.2025 15.6952 73.1475 16.5943L72.6603 24.5612L75.932 24.7613L76.4666 16.0202C76.5287 15.0046 76.3667 14.1006 75.9807 13.3082C75.5957 12.4992 75.0251 11.8543 74.2691 11.3735C73.5296 10.8938 72.6604 10.6234 71.6614 10.5623C70.8123 10.5103 70.0362 10.63 69.3332 10.9212C68.6469 11.2135 68.1007 11.6731 67.6947 12.3L67.797 10.6267L64.7251 10.4389L63.8942 24.0251Z" fill="white"/>
<path d="M85.3234 25.6366C86.6388 25.717 87.8559 25.4906 88.9748 24.9574C90.0947 24.4076 91.0119 23.6197 91.7264 22.5939C92.4419 21.5513 92.8415 20.3474 92.925 18.9822C93.0085 17.6169 92.7581 16.3816 92.174 15.2763C91.6064 14.172 90.8004 13.2787 89.7559 12.5965C88.7113 11.9143 87.523 11.5324 86.1911 11.4509C84.8424 11.3685 83.6081 11.6021 82.4882 12.152C81.3683 12.7018 80.4511 13.4897 79.7366 14.5156C79.0387 15.5425 78.648 16.7386 78.5645 18.1038C78.481 19.4691 78.723 20.7039 79.2905 21.8082C79.8747 22.9135 80.6891 23.8072 81.7336 24.4895C82.7948 25.1727 83.9914 25.5551 85.3234 25.6366ZM85.5067 22.6396C84.7741 22.5948 84.1272 22.3797 83.5658 21.9945C83.0211 21.6102 82.6011 21.0999 82.3058 20.4634C82.0281 19.8114 81.9132 19.0941 81.9611 18.3116C82.0089 17.529 82.2099 16.8394 82.5639 16.2427C82.9346 15.647 83.4137 15.1917 84.0011 14.8767C84.6063 14.546 85.2752 14.4031 86.0077 14.4479C86.7403 14.4927 87.3702 14.7151 87.8972 15.115C88.4419 15.4992 88.8536 16.0091 89.1322 16.6445C89.4276 17.2809 89.5513 17.9903 89.5034 18.7729C89.4556 19.5554 89.2458 20.2529 88.8741 20.8652C88.5201 21.4619 88.0493 21.9177 87.4619 22.2328C86.891 22.5488 86.2393 22.6844 85.5067 22.6396Z" fill="white"/>
</svg>
