<svg width="132" height="36" viewBox="0 0 132 36" fill="none" xmlns="http://www.w3.org/2000/svg">
<path d="M16.1141 5.55188L17.2088 4.58334C19.3586 2.68136 22.6598 2.83295 24.5742 4.97177C25.2994 5.78391 25.7521 6.80285 25.8686 7.88544C25.9851 8.96806 25.7594 10.0599 25.2235 11.0077C24.9665 11.4604 24.8574 11.9821 24.9112 12.4998C24.9651 13.0176 25.1793 13.5056 25.524 13.8956C26.2406 13.2602 26.8249 12.4898 27.2436 11.6284C27.6623 10.7671 27.9072 9.83167 27.9644 8.87565C28.0214 7.91964 27.8897 6.96173 27.5765 6.05667C27.2633 5.15159 26.7748 4.31709 26.139 3.60084C23.4632 0.593512 18.8351 0.367032 15.8201 3.03429L5.38539 12.2659L4.62644 11.4081C2.69222 9.22183 2.88506 5.85336 5.10541 3.95797C5.92715 3.25869 6.94568 2.83169 8.02044 2.73591C9.09519 2.64014 10.1732 2.88031 11.1056 3.42327C11.531 3.67515 12.025 3.78616 12.5172 3.74046C13.0094 3.69477 13.4746 3.49469 13.8463 3.16882L13.8729 3.14541C13.8812 3.13814 13.888 3.1293 13.8928 3.1194C13.8977 3.10951 13.9005 3.09875 13.9012 3.08775C13.9018 3.07676 13.9003 3.06573 13.8967 3.05533C13.8931 3.04492 13.8875 3.03532 13.8802 3.02708C12.6075 1.62489 10.8391 0.772846 8.94937 0.651249C7.05961 0.529653 5.19665 1.14804 3.75473 2.37556C0.64817 5.0279 0.370642 9.73747 3.07739 12.7969L12.3065 23.2285L11.1984 24.2089C9.04863 26.1109 5.74728 25.9593 3.83305 23.8205C3.10778 23.0084 2.65512 21.9894 2.53864 20.9068C2.42217 19.8243 2.64772 18.7324 3.18363 17.7845C3.44062 17.3318 3.5498 16.8101 3.49594 16.2925C3.44208 15.7747 3.22785 15.2867 2.88319 14.8966C2.16663 15.5321 1.5823 16.3025 1.16358 17.1638C0.744846 18.0252 0.499938 18.9605 0.44282 19.9166C0.38571 20.8726 0.517515 21.8306 0.830722 22.7356C1.14392 23.6407 1.63238 24.4752 2.26818 25.1914C4.94389 28.1989 9.57215 28.4255 12.5871 25.7581L23.0354 16.5141L23.7972 17.3752C25.6991 19.525 25.5476 22.8262 23.4087 24.7404C22.5966 25.4658 21.5777 25.9184 20.4951 26.035C19.4125 26.1515 18.3206 25.9258 17.3728 25.3898C16.9199 25.1327 16.398 25.0235 15.8801 25.0775C15.3622 25.1315 14.874 25.3459 14.4839 25.6909C15.1194 26.4075 15.8898 26.9919 16.7511 27.4106C17.6125 27.8293 18.5478 28.0742 19.5039 28.1314C20.4599 28.1884 21.4179 28.0566 22.3229 27.7434C23.228 27.4302 24.0625 26.9417 24.7787 26.3059C27.7862 23.6302 28.0126 19.0019 25.3454 15.9871L16.1141 5.55188ZM13.8643 21.8497L6.76391 13.8242L14.5558 6.93067L21.6561 14.9562L13.8643 21.8497Z" fill="white"/>
<path d="M39.5953 24.7526C38.0904 24.6605 36.9669 24.1486 36.2249 23.2168C35.4891 22.2854 35.1213 21.052 35.1216 19.5164L37.5462 19.0655C37.5183 21.4607 38.2413 22.7035 39.7152 22.7936C40.9092 22.8666 41.5427 22.3061 41.6157 21.1121C41.6374 20.7576 41.6076 20.4281 41.5264 20.1235C41.4518 19.8131 41.3225 19.5274 41.1387 19.2665C40.9553 18.9993 40.7873 18.7862 40.6348 18.627C40.4826 18.4617 40.2734 18.2585 40.0073 18.0175L37.1683 15.4469C36.6472 14.9843 36.2421 14.4133 35.9528 13.734C35.6701 13.0488 35.5547 12.2833 35.6064 11.4375C35.6817 10.2062 36.1241 9.25007 36.9335 8.56925C37.7429 7.88842 38.7789 7.58662 40.0413 7.66383C41.397 7.74675 42.4525 8.14526 43.2078 8.85937C43.9698 9.56764 44.4069 10.5338 44.5193 11.7579C44.53 11.8897 44.5407 12.0713 44.5515 12.303L42.127 12.7539C42.1272 12.6478 42.1214 12.4883 42.1094 12.2753C42.0501 11.5101 41.8478 10.8892 41.5024 10.4124C41.1636 9.92971 40.6366 9.66652 39.9215 9.62278C39.3493 9.58779 38.8979 9.72247 38.5672 10.0268C38.2368 10.325 38.0542 10.7601 38.0192 11.3323C37.9617 12.2713 38.3116 13.0824 39.0689 13.7654L41.9079 16.336C43.4212 17.7207 44.123 19.3085 44.0135 21.0996C43.9386 22.3247 43.5006 23.2592 42.6997 23.9031C41.905 24.5474 40.8702 24.8305 39.5953 24.7526Z" fill="white"/>
<path d="M48.8849 23.3545C49.513 23.3929 50.1199 23.2677 50.7056 22.9789L51.1575 15.5909C51.1334 15.5769 51.0735 15.5358 50.9778 15.4675C50.8821 15.3992 50.813 15.3545 50.7707 15.3331C50.7349 15.306 50.6718 15.2647 50.5816 15.2092C50.4914 15.1538 50.4157 15.1148 50.3547 15.0923C50.3002 15.064 50.2271 15.0346 50.1354 15.004C50.0502 14.9676 49.9645 14.9405 49.8782 14.9227C49.7981 14.9054 49.7114 14.8938 49.6181 14.8881C49.4191 14.8759 49.239 14.9117 49.0778 14.9955C48.9232 15.0735 48.7924 15.1716 48.6853 15.2899C48.5782 15.4081 48.4803 15.5801 48.3916 15.8056C48.3091 16.0315 48.2468 16.2337 48.2047 16.4121C48.1629 16.5844 48.1236 16.8192 48.0867 17.1165C48.0501 17.4077 48.0238 17.6339 48.0077 17.7952C47.9978 17.9569 47.9839 18.1839 47.9661 18.4762C47.9653 18.4886 47.9647 18.498 47.9644 18.5042C47.9579 18.6099 47.9474 18.7809 47.933 19.0172C47.9185 19.2535 47.9046 19.4805 47.8913 19.6982C47.878 19.9159 47.8655 20.1211 47.8537 20.3139C47.8344 20.7309 47.8306 21.099 47.8423 21.418C47.8606 21.7313 47.9009 22.0427 47.9631 22.3524C48.0319 22.6562 48.142 22.897 48.2934 23.0748C48.4514 23.2468 48.6486 23.34 48.8849 23.3545ZM50.3473 28.8371L50.632 24.1823C50.2551 24.5275 49.8699 24.8036 49.4765 25.0105C49.0893 25.2178 48.6532 25.3066 48.1681 25.2769C47.7079 25.2487 47.3045 25.1086 46.9579 24.8564C46.6178 24.5984 46.3502 24.2793 46.155 23.8991C45.966 23.5192 45.8152 23.0762 45.7026 22.5699C45.5966 22.0578 45.5304 21.5575 45.5041 21.069C45.484 20.5809 45.49 20.0757 45.5219 19.5533L45.6332 17.7343C45.6663 17.1932 45.7214 16.7003 45.7985 16.2556C45.8757 15.8109 45.9928 15.3749 46.1501 14.9475C46.3073 14.5202 46.5008 14.1637 46.7305 13.8782C46.9668 13.5868 47.2677 13.3617 47.6332 13.203C47.999 13.0382 48.4152 12.97 48.8816 12.9985C49.149 13.0149 49.3955 13.0674 49.621 13.1561C49.8532 13.239 50.0702 13.3646 50.2721 13.533C50.4803 13.7018 50.6398 13.8489 50.7508 13.9742C50.8683 14.0938 51.0259 14.272 51.2237 14.5088L51.2967 13.3148L53.6848 13.4608L52.7354 28.9832L50.3473 28.8371Z" fill="white"/>
<path d="M56.5636 25.7904C56.0412 25.7584 55.6327 25.5493 55.3379 25.163C55.0436 24.7705 54.9132 24.3006 54.9466 23.7533L55.5691 13.5761L57.9572 13.7221L57.3792 23.1717C57.364 23.4205 57.4262 23.6272 57.566 23.7918C57.712 23.9568 57.9062 24.0467 58.1487 24.0615C58.2793 24.0695 58.4078 24.0617 58.5341 24.0383C58.6603 24.0148 58.7848 23.9693 58.9076 23.9019C59.0369 23.8287 59.1371 23.7724 59.2081 23.733C59.2796 23.6875 59.3809 23.6125 59.5122 23.5082C59.6496 23.4042 59.7346 23.3408 59.7673 23.3178L60.3452 13.8682L62.7333 14.0142L62.003 25.9545L59.6149 25.8085L59.6937 24.5212C59.4448 24.7119 59.2615 24.8505 59.1439 24.937C59.0325 25.0238 58.8599 25.1412 58.6261 25.2892C58.3927 25.431 58.1867 25.5339 58.008 25.5978C57.8359 25.656 57.6206 25.7052 57.3622 25.7456C57.1034 25.7922 56.8372 25.8071 56.5636 25.7904Z" fill="white"/>
<path d="M67.467 24.491C67.6349 24.5013 67.7996 24.4614 67.9612 24.3714C68.129 24.2818 68.2561 24.1928 68.3427 24.1045C68.4292 24.0161 68.5363 23.8978 68.664 23.7496C68.6846 23.7196 68.7015 23.6988 68.7146 23.6871L68.9166 20.3849C68.8129 20.4472 68.6417 20.5429 68.4028 20.6718C68.164 20.8008 67.9733 20.9077 67.8308 20.9927C67.6886 21.0713 67.5162 21.1856 67.3135 21.3355C67.1112 21.4792 66.9527 21.6225 66.8378 21.7653C66.7234 21.9018 66.6192 22.0734 66.5255 22.2798C66.4317 22.4863 66.3777 22.7046 66.3637 22.9347C66.3032 23.9235 66.671 24.4423 67.467 24.491ZM66.1531 26.3769C65.4877 26.3362 64.9393 26.0155 64.5079 25.4149C64.0831 24.8084 63.8927 24.1444 63.9368 23.423C63.9722 22.8447 64.1007 22.3251 64.3224 21.8642C64.5503 21.4037 64.7817 21.0402 65.0165 20.7737C65.2516 20.5009 65.6333 20.2309 66.1615 19.9636C66.6901 19.6901 67.0884 19.5053 67.3565 19.4093C67.6245 19.3134 68.0897 19.1577 68.7521 18.9423C68.8667 18.9056 68.9527 18.8765 69.0102 18.8551L69.0627 17.9969C69.0996 17.3936 69.0441 16.9221 68.8964 16.5822C68.749 16.2361 68.4452 16.049 67.985 16.0208C67.5746 15.9957 67.2705 16.1207 67.0726 16.3957C66.8814 16.6649 66.7581 17.0475 66.7028 17.5435C66.6924 17.6116 66.683 17.714 66.6746 17.8508L64.2866 17.7047C64.369 16.5612 64.745 15.6697 65.4146 15.0303C66.0841 14.3909 66.9786 14.1054 68.098 14.1738C69.2112 14.2419 70.0638 14.6405 70.6559 15.3696C71.2547 16.0929 71.5196 17.0173 71.4507 18.1429L71.1221 23.516C71.046 24.7598 71.0878 25.7611 71.2474 26.5199L68.8686 26.3745L68.661 24.564C68.5214 24.8052 68.407 24.9917 68.3178 25.1235C68.2348 25.2558 68.1124 25.42 67.9506 25.6161C67.7892 25.8059 67.6304 25.9523 67.4743 26.0551C67.3186 26.1517 67.1263 26.2336 66.8975 26.3007C66.6687 26.3679 66.4206 26.3933 66.1531 26.3769Z" fill="white"/>
<path d="M73.0011 26.6272L73.7314 14.6869L76.1194 14.833L76.0219 16.4281C76.2933 15.9703 76.6698 15.5814 77.1513 15.2613C77.6394 14.9353 78.1664 14.7896 78.7323 14.8243C78.751 14.8254 78.8777 14.8456 79.1125 14.885L78.951 17.5249C78.5202 17.3237 78.0839 17.2097 77.6424 17.1827C77.1449 17.1522 76.7346 17.277 76.4117 17.5568C76.0887 17.8367 75.9122 18.2223 75.8821 18.7136L75.3892 26.7733L73.0011 26.6272Z" fill="white"/>
<path d="M82.7483 27.3919C82.1699 27.3565 81.6723 27.2262 81.2553 27.001C80.8446 26.7761 80.5215 26.4973 80.2859 26.1645C80.0569 25.8259 79.8799 25.4031 79.7549 24.8961C79.6302 24.3829 79.552 23.8756 79.5202 23.3743C79.4951 22.8671 79.4966 22.2804 79.5249 21.6143C79.5382 21.0907 79.5701 20.5683 79.6207 20.0471C79.6774 19.4264 79.7515 18.8785 79.843 18.4034C79.9411 17.9225 80.0848 17.46 80.2743 17.0159C80.4638 16.5718 80.6949 16.2114 80.9678 15.9348C81.2468 15.6584 81.6 15.446 82.0273 15.2973C82.4613 15.1428 82.9581 15.0827 83.5178 15.1169C84.0277 15.1481 84.4713 15.2439 84.8485 15.4043C85.2323 15.5589 85.5433 15.7808 85.7816 16.07C86.0264 16.3534 86.2227 16.665 86.3704 17.0049C86.5244 17.3451 86.6305 17.7543 86.6886 18.2322C86.7472 18.704 86.7781 19.1678 86.7814 19.6236C86.791 20.0799 86.7777 20.6034 86.7416 21.1942L86.7244 21.4741L81.9483 21.182L81.9118 21.779C81.9069 21.8598 81.8991 21.9873 81.8884 22.1614C81.8619 22.3908 81.8441 22.63 81.8352 22.8792C81.8328 23.1225 81.8306 23.3626 81.8285 23.5997C81.8265 23.8368 81.8468 24.0659 81.8895 24.287C81.9325 24.5018 81.9895 24.6926 82.0605 24.8592C82.1314 25.0259 82.2356 25.1602 82.3729 25.2622C82.5165 25.3646 82.6877 25.4219 82.8867 25.4341C83.1355 25.4493 83.3436 25.4152 83.511 25.3318C83.6788 25.2422 83.8058 25.1033 83.8923 24.9151C83.9849 24.7272 84.0527 24.5379 84.0956 24.347C84.1384 24.1561 84.1719 23.9147 84.196 23.6228L84.2268 23.1191L86.5962 23.264L86.5671 23.7397C86.4332 25.0112 86.0602 25.9559 85.4481 26.5739C84.836 27.1919 83.9361 27.4646 82.7483 27.3919ZM82.0214 19.9879L84.3907 20.1329L84.4347 19.4146C84.4479 19.097 84.4461 18.8191 84.4295 18.5809C84.4129 18.3427 84.3713 18.103 84.3049 17.8617C84.2448 17.6208 84.1376 17.4332 83.9836 17.299C83.8295 17.1647 83.6343 17.0904 83.398 17.0759C83.1554 17.0611 82.9462 17.1138 82.7703 17.2341C82.6006 17.3548 82.4678 17.5371 82.3717 17.7809C82.2822 18.0189 82.2147 18.2551 82.1692 18.4895C82.1236 18.7239 82.0877 19.0057 82.0613 19.335L82.0214 19.9879Z" fill="white"/>
<path d="M92.543 27.991C91.0381 27.8989 89.9146 27.387 89.1726 26.4553C88.4368 25.5239 88.069 24.2904 88.0693 22.7548L90.4939 22.3039C90.466 24.6992 91.189 25.9419 92.6629 26.032C93.8569 26.1051 94.4904 25.5446 94.5634 24.3505C94.5851 23.9961 94.5553 23.6665 94.4741 23.3619C94.3994 23.0515 94.2702 22.7658 94.0864 22.5049C93.903 22.2377 93.735 22.0246 93.5825 21.8655C93.4303 21.7001 93.2211 21.4969 92.955 21.2559L90.116 18.6853C89.5949 18.2227 89.1898 17.6517 88.9005 16.9724C88.6178 16.2872 88.5023 15.5217 88.5541 14.6759C88.6294 13.4446 89.0718 12.4885 89.8812 11.8077C90.6906 11.1268 91.7265 10.825 92.989 10.9022C94.3447 10.9852 95.4002 11.3837 96.1555 12.0978C96.9175 12.8061 97.3546 13.7722 97.467 14.9963C97.4777 15.1281 97.4884 15.3098 97.4992 15.5414L95.0746 15.9923C95.0749 15.8862 95.069 15.7267 95.0571 15.5137C94.9978 14.7486 94.7954 14.1276 94.4501 13.6508C94.1113 13.1681 93.5843 12.9049 92.8692 12.8612C92.297 12.8262 91.8456 12.9609 91.5149 13.2653C91.1845 13.5634 91.0019 13.9985 90.9669 14.5707C90.9094 15.5097 91.2593 16.3208 92.0165 17.0038L94.8556 19.5744C96.3689 20.9591 97.0707 22.547 96.9612 24.338C96.8863 25.5631 96.4483 26.4976 95.6474 27.1415C94.8527 27.7858 93.8179 28.069 92.543 27.991Z" fill="white"/>
<path d="M101.675 28.5495C100.736 28.4921 100.067 28.2108 99.6672 27.7057C99.2736 27.201 99.1002 26.4632 99.1471 25.4923L99.6013 18.0669L98.4073 17.9939L98.5168 16.2029L99.7108 16.2759L99.9664 12.0968L102.354 12.2429L102.099 16.422L103.89 16.5315L103.78 18.3225L101.989 18.213L101.563 25.1813C101.534 25.6601 101.578 26.0155 101.695 26.2474C101.811 26.4792 102.069 26.6073 102.467 26.6317C102.641 26.6423 102.91 26.6276 103.275 26.5875L103.156 28.5277C102.555 28.5659 102.061 28.5731 101.675 28.5495Z" fill="white"/>
<path d="M110.998 27.9961C110.399 28.7085 109.458 29.0256 108.177 28.9472C106.896 28.8689 106.002 28.4396 105.494 27.6595C104.986 26.8794 104.775 25.7866 104.861 24.3811L105.08 20.799C105.166 19.3936 105.509 18.3346 106.108 17.6222C106.707 16.9098 107.647 16.5928 108.928 16.6711C110.209 16.7495 111.104 17.1787 111.612 17.9588C112.119 18.7389 112.33 19.8317 112.244 21.2372L112.025 24.8193C111.939 26.2248 111.597 27.2837 110.998 27.9961ZM107.854 26.8862C107.982 26.944 108.129 26.978 108.297 26.9883C108.465 26.9985 108.613 26.9826 108.74 26.9405C108.874 26.8987 108.983 26.8461 109.068 26.7826C109.16 26.7133 109.238 26.612 109.302 26.4786C109.367 26.339 109.418 26.2172 109.456 26.1134C109.493 26.0096 109.524 25.8586 109.549 25.6603C109.573 25.4621 109.589 25.307 109.596 25.1951C109.609 25.0773 109.623 24.9033 109.637 24.6732L109.856 21.0911C109.87 20.8611 109.878 20.6898 109.878 20.5775C109.886 20.4594 109.889 20.3004 109.889 20.1006C109.889 19.9009 109.876 19.7472 109.851 19.6396C109.827 19.5319 109.791 19.408 109.743 19.2678C109.696 19.1213 109.631 19.0112 109.548 18.9375C109.472 18.8579 109.37 18.7892 109.242 18.7315C109.121 18.6741 108.976 18.6403 108.808 18.6301C108.64 18.6198 108.49 18.6355 108.356 18.6773C108.229 18.7194 108.119 18.7752 108.027 18.8445C107.942 18.9079 107.868 19.0095 107.803 19.1491C107.739 19.2825 107.688 19.4011 107.65 19.5049C107.612 19.6087 107.581 19.7598 107.557 19.958C107.532 20.1562 107.513 20.3143 107.5 20.432C107.493 20.544 107.482 20.715 107.468 20.9451L107.249 24.5272C107.235 24.7573 107.224 24.9314 107.217 25.0496C107.217 25.1619 107.216 25.3179 107.217 25.5177C107.217 25.7175 107.229 25.8712 107.254 25.9788C107.279 26.0864 107.315 26.2134 107.362 26.3599C107.409 26.5001 107.471 26.61 107.548 26.6896C107.631 26.7633 107.733 26.8289 107.854 26.8862Z" fill="white"/>
<path d="M113.729 29.1182L114.459 17.1779L116.847 17.324L116.768 18.6113C117.143 18.3096 117.447 18.0816 117.681 17.9274C117.915 17.767 118.233 17.6241 118.634 17.4988C119.042 17.3677 119.469 17.3158 119.917 17.3432C120.427 17.3744 120.829 17.5863 121.123 17.9788C121.418 18.3713 121.548 18.8381 121.515 19.3792L120.893 29.5564L118.505 29.4103L119.052 20.4551C119.078 20.0385 119.037 19.7332 118.931 19.5394C118.824 19.3394 118.591 19.2284 118.23 19.2063C118.025 19.1938 117.817 19.2247 117.606 19.2993C117.402 19.3679 117.248 19.4365 117.144 19.5051C117.041 19.5674 116.891 19.6706 116.695 19.8147L116.117 29.2643L113.729 29.1182Z" fill="white"/>
<path d="M126.349 30.0586C125.771 30.0233 125.273 29.893 124.856 29.6677C124.445 29.4428 124.122 29.164 123.887 28.8313C123.658 28.4927 123.481 28.0699 123.356 27.5628C123.231 27.0496 123.153 26.5423 123.121 26.041C123.096 25.5338 123.097 24.9472 123.126 24.281C123.139 23.7575 123.171 23.2351 123.221 22.7138C123.278 22.0931 123.352 21.5452 123.444 21.0701C123.542 20.5892 123.686 20.1268 123.875 19.6827C124.064 19.2386 124.296 18.8782 124.568 18.6015C124.848 18.3252 125.201 18.1127 125.628 17.9641C126.062 17.8096 126.559 17.7494 127.118 17.7837C127.628 17.8149 128.072 17.9107 128.449 18.0711C128.833 18.2256 129.144 18.4475 129.382 18.7367C129.627 19.0201 129.823 19.3318 129.971 19.6716C130.125 20.0119 130.231 20.421 130.289 20.8989C130.348 21.3707 130.379 21.8345 130.382 22.2904C130.392 22.7466 130.378 23.2702 130.342 23.861L130.325 24.1408L125.549 23.8487L125.512 24.4457C125.508 24.5266 125.5 24.654 125.489 24.8282C125.463 25.0575 125.445 25.2967 125.436 25.5459C125.433 25.7892 125.431 26.0294 125.429 26.2665C125.427 26.5035 125.448 26.7326 125.49 26.9537C125.533 27.1686 125.59 27.3593 125.661 27.5259C125.732 27.6926 125.836 27.8269 125.974 27.929C126.117 28.0314 126.288 28.0887 126.487 28.1008C126.736 28.116 126.944 28.082 127.112 27.9986C127.279 27.9089 127.407 27.77 127.493 27.5818C127.586 27.394 127.653 27.2046 127.696 27.0137C127.739 26.8228 127.773 26.5814 127.797 26.2895L127.828 25.7858L130.197 25.9307L130.168 26.4065C130.034 27.6779 129.661 28.6226 129.049 29.2406C128.437 29.8586 127.537 30.1313 126.349 30.0586ZM125.622 22.6547L127.991 22.7996L128.035 22.0813C128.049 21.7638 128.047 21.4859 128.03 21.2477C128.014 21.0094 127.972 20.7697 127.906 20.5284C127.845 20.2876 127.738 20.1 127.584 19.9657C127.43 19.8314 127.235 19.7571 126.999 19.7426C126.756 19.7278 126.547 19.7805 126.371 19.9009C126.201 20.0216 126.068 20.2038 125.972 20.4476C125.883 20.6856 125.815 20.9218 125.77 21.1562C125.724 21.3906 125.688 21.6725 125.662 22.0017L125.622 22.6547Z" fill="white"/>
</svg>
