<svg width="116" height="33" viewBox="0 0 116 33" fill="none" xmlns="http://www.w3.org/2000/svg">
<path d="M22.9214 10.9593L22.9069 10.943C22.9058 10.9421 22.9048 10.9409 22.9043 10.9395L13.8934 0.754246L3.70844 9.76519C3.70727 9.76624 3.70656 9.76768 3.7054 9.76835L3.68863 9.78272C2.13071 11.1688 1.08081 13.036 0.705838 15.0873C0.330865 17.1386 0.652334 19.2565 1.61914 21.1041C2.58594 22.9518 4.1426 24.4233 6.04166 25.2846C7.94072 26.1458 10.0732 26.3477 12.1001 25.8578C12.2706 25.8168 12.4496 25.8278 12.6139 25.8892C14.5658 26.6222 16.7068 26.6818 18.6966 26.0582C20.6863 25.4347 22.4106 24.1639 23.5952 22.448C24.7799 20.732 25.3572 18.6693 25.2351 16.5877C25.113 14.5061 24.2986 12.525 22.9214 10.9593ZM6.73306 16.3221C6.68348 16.366 6.64303 16.4192 6.61403 16.4786C6.58502 16.5381 6.568 16.6027 6.56398 16.6688C6.47745 18.3638 6.85483 20.0503 7.6555 21.5468C7.67369 21.5808 7.68068 21.6197 7.67547 21.6578C7.67027 21.6959 7.65313 21.7314 7.6265 21.7593C7.59988 21.7871 7.56514 21.8058 7.52725 21.8127C7.48936 21.8196 7.45026 21.8143 7.41556 21.7976C6.76452 21.4757 6.18244 21.03 5.7019 20.4854C4.71696 19.372 4.21419 17.913 4.30399 16.4292C4.39379 14.9453 5.06883 13.5577 6.18087 12.5711L13.5704 6.03401L20.1079 13.423C21.0916 14.5375 21.5927 15.9971 21.501 17.481C21.4093 18.9647 20.7324 20.3515 19.619 21.3367C19.0757 21.8185 18.4437 22.19 17.7584 22.4302C17.7218 22.4425 17.6824 22.443 17.6456 22.4315C17.6089 22.4201 17.5767 22.3972 17.5536 22.3664C17.5306 22.3356 17.5178 22.2982 17.5173 22.2596C17.5168 22.2211 17.5284 22.1834 17.5506 22.1519C18.5279 20.7643 19.1083 19.1363 19.2292 17.4434C19.2333 17.3774 19.2241 17.3111 19.2025 17.2485C19.1808 17.1858 19.147 17.1281 19.103 17.0786L16.023 13.3835C15.9918 13.3541 15.9515 13.3366 15.9087 13.334C15.8661 13.3314 15.8238 13.3438 15.7894 13.3692C15.7549 13.3945 15.7305 13.4312 15.7202 13.4727C15.71 13.5142 15.7146 13.5579 15.7334 13.5964C16.8711 15.9896 15.5677 19.2473 13.621 20.9698L13.6108 20.9789C13.3423 21.2139 12.9919 21.3334 12.6358 21.3115C12.2796 21.2895 11.9465 21.128 11.7088 20.8619L11.7005 20.8523C9.97761 18.9054 9.08152 15.5135 10.5025 13.277C10.5258 13.2411 10.5358 13.1983 10.5307 13.1558C10.5256 13.1133 10.5058 13.0739 10.4747 13.0446C10.4436 13.0153 10.4032 12.9977 10.3605 12.9951C10.3178 12.9925 10.2755 13.005 10.2411 13.0304L6.73306 16.3221Z" fill="white"/>
<path d="M46.6322 10.8025L49.8088 10.9968L45.8405 21.8048L42.2101 21.5827L41.0694 14.9776L39.1124 21.3933L35.4821 21.1712L32.8605 9.96022L36.2344 10.1666L37.4778 18.0058L39.6477 10.3753L43.2189 10.5938L44.4426 18.4318L46.6322 10.8025Z" fill="white"/>
<path d="M57.6004 19.0187C58.116 18.575 58.4004 17.919 58.4535 17.0509C58.5066 16.1828 58.3039 15.5036 57.8454 15.0135C57.3877 14.5102 56.8431 14.2392 56.2117 14.2006C55.5804 14.162 55.0069 14.3646 54.4912 14.8083C53.9756 15.2521 53.6912 15.908 53.6381 16.7762C53.585 17.6443 53.7873 18.33 54.2451 18.8333C54.7036 19.3234 55.2485 19.5878 55.8799 19.6264C56.5113 19.6651 57.0848 19.4625 57.6004 19.0187ZM51.4177 20.7002C50.5087 19.5884 50.1045 18.2104 50.2051 16.5662C50.3056 14.922 50.8748 13.6035 51.9125 12.6108C52.951 11.6049 54.1674 11.1446 55.5617 11.2299C56.9691 11.3159 58.0159 11.9015 58.7021 12.9865L58.7902 11.5461L62.1641 11.7525L61.4907 22.762L58.1168 22.5556L58.2146 20.9575C57.3283 22.0651 56.2011 22.5771 54.8332 22.4934C53.4652 22.4097 52.3267 21.812 51.4177 20.7002Z" fill="white"/>
<path d="M63.7275 11.8481L67.3184 12.0678L69.3234 20.4091L72.3299 12.3743L75.9208 12.5939L71.3409 23.3644L66.9608 23.0965L63.7275 11.8481Z" fill="white"/>
<path d="M81.4733 24.1228C79.8686 24.0246 78.5846 23.4312 77.6214 22.3425C76.659 21.2406 76.2301 19.8347 76.3346 18.1247C76.4392 16.4148 77.0289 15.0844 78.1037 14.1335C79.1916 13.1834 80.5445 12.7579 82.1624 12.8568C83.7802 12.9558 85.0913 13.5377 86.0956 14.6025C87.0999 15.6673 87.5478 17.0876 87.4392 18.8633C87.4158 19.2448 87.3678 19.5983 87.2951 19.9239L79.7186 19.4605C79.7546 19.9512 79.9471 20.3657 80.2961 20.7039C80.6459 21.029 81.0313 21.2044 81.4522 21.2301C81.8863 21.2567 82.2109 21.2369 82.4262 21.1709C82.6423 21.0917 82.7988 21.0154 82.8957 20.9421C83.0066 20.8565 83.1469 20.7198 83.3169 20.5322L86.9669 20.7554C86.5837 21.841 85.8976 22.6968 84.9087 23.3229C83.9206 23.9358 82.7755 24.2024 81.4733 24.1228ZM83.9911 17.6028C83.9699 17.0866 83.7716 16.6586 83.3963 16.3188C83.0218 15.9658 82.5649 15.7728 82.0256 15.7399C81.4863 15.7069 81.0225 15.8435 80.6341 16.1498C80.2465 16.443 79.991 16.8433 79.8675 17.3506L83.9911 17.6028Z" fill="white"/>
<path d="M93.3192 13.658L93.1937 15.71C94.0714 14.3114 95.1679 13.6523 96.4833 13.7327L96.2733 17.1658L95.4446 17.1151C94.6686 17.0676 94.072 17.216 93.6549 17.5602C93.2509 17.9051 93.0207 18.538 92.9644 19.4587L92.6458 24.6675L89.272 24.4612L89.9453 13.4517L93.3192 13.658Z" fill="white"/>
<path d="M101.462 12.9084C101.057 13.2665 100.578 13.4287 100.026 13.3949C99.4732 13.3611 99.0179 13.1418 98.6598 12.737C98.3017 12.3322 98.1395 11.8536 98.1733 11.3012C98.2079 10.7356 98.4276 10.2737 98.8324 9.91559C99.2372 9.55747 99.7158 9.39531 100.268 9.4291C100.821 9.46289 101.276 9.68217 101.634 10.087C101.992 10.4917 102.154 10.9769 102.119 11.5425C102.086 12.095 101.866 12.5503 101.462 12.9084ZM97.6342 24.9726L98.3076 13.9631L101.681 14.1695L101.008 25.179L97.6342 24.9726Z" fill="white"/>
<path d="M110.794 22.3118C111.27 21.8656 111.536 21.1953 111.59 20.3009C111.645 19.4064 111.456 18.715 111.024 18.2264C110.593 17.7247 110.061 17.4546 109.43 17.416C108.799 17.3774 108.238 17.5807 107.749 18.0261C107.274 18.4591 107.009 19.1229 106.954 20.0173C106.899 20.9117 107.088 21.6098 107.519 22.1115C107.963 22.614 108.501 22.8845 109.133 22.9231C109.764 22.9617 110.318 22.758 110.794 22.3118ZM104.928 23.9928C103.887 22.8861 103.418 21.4844 103.522 19.7876C103.626 18.0908 104.261 16.7698 105.428 15.8245C106.596 14.8661 107.995 14.4368 109.626 14.5366C111.257 14.6363 112.587 15.2326 113.616 16.3253C114.659 17.4057 115.129 18.7943 115.025 20.4911C114.921 22.1879 114.291 23.5225 113.136 24.4949C111.981 25.4672 110.588 25.9035 108.957 25.8037C107.326 25.704 105.983 25.1004 104.928 23.9928Z" fill="white"/>
</svg>
