<svg width="120" height="29" viewBox="0 0 120 29" fill="none" xmlns="http://www.w3.org/2000/svg">
<path d="M2.79779 21.5509L3.64879 7.63721L3.66294 4.78728L5.40395 7.74456L14.35 22.2574L16.8391 22.4097L18.1468 1.02859L15.3705 0.85878L14.5351 14.5171L14.4956 17.7819L12.4966 14.3284L3.78639 0.150267L1.32916 -2.38277e-05L0.0214412 21.3811L2.79779 21.5509ZM24.8136 23.2177C28.0048 23.4129 29.8047 21.2167 30.4402 19.2056L30.3739 20.2906C30.2412 22.4606 31.3431 23.2968 32.9387 23.3944L34.7258 23.5037L34.88 20.9826L33.8907 20.9221C33.3163 20.887 33.0428 20.646 33.0877 19.9121L33.4761 13.5616C33.7005 9.89166 31.7967 7.50099 27.9992 7.26872C24.5527 7.05792 22.136 8.86403 21.1129 10.403L22.8767 12.4648C23.7779 10.8223 25.324 9.63558 27.5259 9.77026C29.9512 9.9186 30.7309 11.3116 30.7153 13.1364L24.9785 15.284C22.7161 16.1386 21.0723 17.3514 20.9455 19.4257C20.8205 21.468 22.1968 23.0577 24.8136 23.2177ZM23.7811 19.1506C23.8396 18.1933 24.5488 17.596 26.0597 16.9838L30.6881 15.1528L30.5573 17.2909C30.4207 19.5247 28.4644 21.1348 25.8476 20.9747C24.4116 20.8869 23.7166 20.2037 23.7811 19.1506ZM42.6527 24.3409C44.7908 24.4716 46.3193 23.5721 47.0538 22.56L46.2962 19.759C45.8228 20.691 44.7952 21.7812 43.423 21.6973C42.2103 21.6232 41.3142 21.0879 41.4352 19.1093L41.9544 10.6207L47.0284 10.931L47.1611 8.76103L42.0871 8.45069L42.333 4.42977L39.4317 6.30233L39.3107 8.28088L36.8216 8.12864L36.6889 10.2987L39.178 10.4509L38.6081 19.7692C38.4461 22.4179 40.1316 24.1867 42.6527 24.3409ZM51.7492 24.5449L52.284 15.801C52.446 13.1523 54.3755 10.932 56.3541 11.053C57.471 11.1213 57.9028 11.9165 57.8482 12.81C57.7955 13.6716 57.3221 14.6036 56.7842 15.0192L59.8158 15.2046C60.0945 14.8373 60.5041 13.9014 60.5841 12.593C60.7169 10.423 59.1935 9.14461 57.534 9.04312C54.9173 8.88307 53.1948 10.8598 52.4421 13.2161L52.6939 9.09942L49.9175 8.92962L48.9728 24.3751L51.7492 24.5449ZM68.202 25.8715C72.4782 26.133 75.7031 23.1592 76.0017 18.2766C76.3004 13.3941 73.462 10.0493 69.1857 9.7878C64.9095 9.52625 61.7165 12.5021 61.4179 17.3846C61.1193 22.2672 63.9258 25.6099 68.202 25.8715ZM68.3445 23.5419C65.7277 23.3819 64.02 21.4516 64.2581 17.5583C64.4982 13.6332 66.4265 11.9573 69.0432 12.1174C71.692 12.2794 73.4335 14.1797 73.1935 18.1048C72.9554 21.9981 70.9932 23.7039 68.3445 23.5419ZM81.7914 26.3823L82.3262 17.6384C82.4843 15.0535 83.6962 13.0456 86.0257 13.1881C88.3553 13.3306 89.3401 14.5119 89.2015 16.7777L88.5887 26.7981L91.365 26.9679L91.8998 18.224C92.0579 15.6391 93.2698 13.6312 95.6313 13.7756C97.929 13.9161 98.9457 15.0994 98.8071 17.3652L98.1942 27.3856L100.939 27.5534L101.592 16.8629C101.792 13.6078 100.339 11.6932 97.3075 11.5078C94.4992 11.336 92.7768 13.3127 92.0201 15.7329C92.0382 12.8191 90.5741 11.096 87.7339 10.9222C84.9575 10.7524 83.237 12.6972 82.4862 15.0216L82.7361 10.9369L79.9597 10.7671L79.015 26.2125L81.7914 26.3823ZM108.302 28.3241C111.493 28.5193 113.293 26.3231 113.929 24.312L113.863 25.397C113.73 27.567 114.832 28.4032 116.427 28.5008L118.215 28.6101L118.369 26.089L117.379 26.0285C116.805 25.9934 116.531 25.7524 116.576 25.0184L116.965 18.6679C117.189 14.9981 115.285 12.6074 111.488 12.3751C108.041 12.1643 105.625 13.9704 104.602 15.5094L106.365 17.5712C107.267 15.9287 108.813 14.742 111.015 14.8766C113.44 15.025 114.22 16.418 114.204 18.2428L108.467 20.3904C106.205 21.245 104.561 22.4578 104.434 24.532C104.309 26.5744 105.685 28.1641 108.302 28.3241ZM107.27 24.257C107.328 23.2997 108.038 22.7024 109.548 22.0901L114.177 20.2591L114.046 22.3973C113.909 24.6311 111.953 26.2412 109.336 26.0811C107.9 25.9933 107.205 25.3101 107.27 24.257Z" fill="white"/>
</svg>
