<svg width="73" height="26" viewBox="0 0 73 26" fill="none" xmlns="http://www.w3.org/2000/svg">
<path d="M14.2468 5.7722C11.506 5.60457 6.15184 3.04697 6.31948 0.306065L6.2789 0.303583C6.14473 2.49727 6.88747 4.65441 8.34374 6.30048C9.8 7.94655 11.8505 8.94672 14.0442 9.08098C15.3604 9.16148 16.5908 9.76155 17.4646 10.7492C18.3384 11.7368 18.7841 13.0311 18.7036 14.3473C18.6234 15.6636 18.0235 16.8941 17.036 17.7681C16.0485 18.6421 14.7543 19.088 13.4381 19.0078C12.1218 18.9275 10.8913 18.3276 10.0173 17.3402C9.1433 16.3527 8.69737 15.0584 8.77761 13.7422C8.84402 12.656 8.69583 11.5673 8.34149 10.5383C7.98716 9.50936 7.43363 8.56025 6.71249 7.74521C5.99135 6.93017 5.11675 6.26514 4.1386 5.78811C3.16046 5.31108 2.09793 5.03139 1.01169 4.96499L1.00923 5.00525C3.74961 5.17286 5.63579 10.7964 5.46915 13.5378L5.46864 13.5378C5.36856 15.1738 5.75583 16.8026 6.58149 18.2185C7.40716 19.6343 8.63412 20.7735 10.1072 21.492C11.5803 22.2106 13.2334 22.4762 14.8575 22.2552C16.4815 22.0342 18.0036 21.3366 19.2312 20.2507C20.4587 19.1647 21.3367 17.7391 21.7541 16.154C22.1715 14.5691 22.1095 12.896 21.576 11.3462C21.0425 9.7965 20.0614 8.43976 18.7568 7.44759C17.4522 6.45542 15.8827 5.87238 14.2468 5.7722Z" fill="white"/>
<path d="M29.6746 22.1353C29.6589 22.392 29.8758 22.6372 30.1325 22.6529L31.4159 22.7314C31.724 22.7502 32.1409 22.6727 32.1645 22.2876L32.6323 14.6384L37.535 14.9383L37.0671 22.5875C37.0514 22.8442 37.2683 23.0893 37.525 23.105L38.9881 23.1945C39.2448 23.2102 39.4899 22.9933 39.5056 22.7366L40.074 13.4447C40.0897 13.188 39.8728 12.9428 39.6161 12.9271L32.7626 12.508L32.9573 9.32509C33.0656 7.55397 34.1892 6.87552 35.2416 6.93989C36.371 7.00897 37.6377 7.78208 37.8609 7.92455C38.1338 8.09583 38.3633 8.13563 38.5361 7.83703L39.2485 6.7212C39.3894 6.5237 39.3569 6.21254 39.1594 6.07164C38.6408 5.70498 37.0996 4.78625 35.3798 4.68107C32.8386 4.52564 30.6543 6.11826 30.4675 9.1728L30.2728 12.3557L29.0664 12.2819C28.784 12.2646 28.5661 12.4574 28.5488 12.7398L28.4782 13.8948C28.4625 14.1515 28.6537 14.3951 28.9361 14.4124L30.1425 14.4862L29.6746 22.1353Z" fill="white"/>
<path d="M42.8411 22.9406C42.8254 23.1973 43.0423 23.4425 43.299 23.4582L44.5311 23.5335C44.9418 23.5586 45.2273 23.5246 45.254 23.0882L45.6527 16.5684C45.7664 16.395 46.551 15.3609 48.0398 15.452C48.3735 15.4724 48.7522 15.5986 48.9015 15.685C49.1263 15.8018 49.3861 15.7662 49.5317 15.4917L50.2247 14.2716C50.5494 13.5959 49.3844 13.267 48.409 13.2073C46.5352 13.0927 45.5101 14.2667 45.3147 14.5124L45.0857 13.6224C45.047 13.4139 44.851 13.2473 44.6714 13.2363L43.927 13.1908C43.6703 13.1751 43.4252 13.392 43.4095 13.6487L42.8411 22.9406Z" fill="white"/>
<path d="M50.9287 18.7719C50.7481 21.7238 52.6525 24.2879 55.7583 24.4779C57.4781 24.5831 58.8521 24.023 59.6358 23.4268C59.9595 23.1889 59.895 22.9789 59.7279 22.7626L59.0689 21.7432C58.8792 21.474 58.6933 21.5656 58.3743 21.7265C57.8405 22.0288 56.9683 22.3877 56.0442 22.3311C54.3758 22.2291 53.2526 20.7949 53.2604 19.4041L60.2422 19.8311C60.4732 19.8452 60.6895 19.6781 60.7309 19.423C60.7675 19.2449 60.8136 18.9128 60.8246 18.7331C60.9926 15.9866 59.0616 13.8588 56.3921 13.6956C53.3118 13.5072 51.1061 15.8714 50.9287 18.7719ZM53.4876 17.7948C53.7201 16.5208 54.8594 15.5857 56.2455 15.6705C57.5033 15.7474 58.4656 16.8626 58.4673 18.0994L53.4876 17.7948Z" fill="white"/>
<path d="M62.9698 24.1718C62.9541 24.4284 63.171 24.6736 63.4276 24.6893L64.8907 24.7788C65.1474 24.7945 65.3926 24.5776 65.4083 24.3209L66.4476 7.32842C66.4633 7.07174 66.2464 6.82659 65.9897 6.81089L64.5266 6.72141C64.2699 6.70571 64.0248 6.92259 64.0091 7.17928L62.9698 24.1718Z" fill="white"/>
<path d="M70.7699 10.633C71.617 10.6848 72.3252 10.0582 72.3754 9.23685C72.4272 8.38979 71.8007 7.6816 70.9536 7.62979C70.1322 7.57955 69.4497 8.20768 69.3979 9.05474C69.3477 9.87613 69.9485 10.5828 70.7699 10.633ZM68.7351 24.5244C68.7194 24.7811 68.9363 25.0262 69.193 25.0419L70.6561 25.1314C70.9128 25.1471 71.1579 24.9302 71.1736 24.6735L71.742 15.3816C71.7577 15.1249 71.5408 14.8797 71.2841 14.864L69.821 14.7746C69.5643 14.7589 69.3192 14.9757 69.3035 15.2324L68.7351 24.5244Z" fill="white"/>
</svg>
