<svg width="114" height="29" viewBox="0 0 114 29" fill="none" xmlns="http://www.w3.org/2000/svg">
<path d="M22.068 19.1162C21.9074 18.822 21.6897 18.5628 21.4277 18.3537C21.1657 18.1446 20.8646 17.9899 20.5421 17.8984C19.3093 17.5311 18.2721 16.6907 17.657 15.561C17.0419 14.4312 16.8991 13.1038 17.2596 11.869C17.3984 11.3918 17.393 10.8841 17.2442 10.4098C17.0954 9.93557 16.8098 9.51584 16.4233 9.20339C16.0367 8.89093 15.5664 8.69968 15.0715 8.65359C14.5766 8.60754 14.0791 8.70872 13.6415 8.94447C13.2039 9.18024 12.8457 9.54001 12.6119 9.97866C12.3782 10.4173 12.2792 10.9153 12.3275 11.41C12.3758 11.9047 12.5692 12.3741 12.8834 12.7592C13.1976 13.1444 13.6186 13.4281 14.0935 13.5748C14.7086 13.7536 15.2824 14.052 15.7819 14.453C16.2814 14.854 16.6968 15.3497 17.0044 15.9115C17.312 16.4734 17.5056 17.0904 17.5743 17.7273C17.643 18.3641 17.5852 19.0083 17.4045 19.6228C17.2954 20.0194 17.285 20.4366 17.3742 20.8381C17.4633 21.2397 17.6494 21.6133 17.916 21.9265C18.1827 22.2396 18.5218 22.4829 18.904 22.6349C19.2862 22.787 19.6998 22.8432 20.1087 22.7988C20.5176 22.7544 20.9094 22.6106 21.2501 22.3801C21.5907 22.1495 21.8698 21.8392 22.063 21.4761C22.2562 21.1129 22.3576 20.7081 22.3585 20.2968C22.3594 19.8855 22.2597 19.4802 22.068 19.1162Z" fill="white"/>
<path d="M6.76069 15.3749C7.1864 15.6422 7.68221 15.7762 8.18456 15.7597C8.68694 15.7432 9.17289 15.5769 9.58014 15.2823C9.98739 14.9877 10.2973 14.5781 10.4701 14.1062C10.643 13.6342 10.6709 13.1213 10.5502 12.6334C10.3975 12.0113 10.369 11.3652 10.4665 10.7321C10.564 10.0989 10.7855 9.49129 11.1183 8.94395C11.451 8.39662 11.8886 7.92033 12.4058 7.54241C12.923 7.16448 13.5097 6.8924 14.1323 6.74168C14.6154 6.62222 15.0522 6.36254 15.388 5.99537C15.7238 5.62819 15.9434 5.1699 16.0194 4.67815C16.0953 4.1864 16.0241 3.68317 15.8147 3.23184C15.6053 2.78048 15.267 2.40113 14.8426 2.14157C14.418 1.882 13.9263 1.75376 13.4291 1.77305C12.9319 1.79231 12.4515 1.95819 12.0484 2.24986C11.6452 2.54149 11.3374 2.94587 11.1635 3.41207C10.9897 3.87827 10.9576 4.38548 11.0714 4.86986C11.3712 6.12075 11.1633 7.43952 10.4931 8.53747C9.82294 9.63542 8.74512 10.4232 7.49551 10.7283C7.0028 10.8391 6.55468 11.0952 6.20918 11.4635C5.86367 11.8319 5.63668 12.2954 5.55762 12.7942C5.47859 13.293 5.55109 13.804 5.76578 14.2612C5.98046 14.7183 6.32741 15.1004 6.76172 15.3581L6.76069 15.3749Z" fill="white"/>
<path d="M13.2639 15.3597C12.9285 15.3509 12.5947 15.4093 12.2821 15.5311C11.9694 15.653 11.6843 15.8361 11.4433 16.0696C10.5096 16.9533 9.26398 17.4314 7.9788 17.3994C6.69359 17.3673 5.47335 16.8277 4.58486 15.8985C4.35548 15.6553 4.08006 15.4602 3.77459 15.3243C3.46914 15.1885 3.13972 15.1148 2.80549 15.1075C2.3939 15.1017 1.98713 15.1968 1.62074 15.3844C1.25432 15.5721 0.939443 15.8465 0.703527 16.1838C0.467578 16.5211 0.317812 16.9111 0.267235 17.3196C0.216687 17.7281 0.266862 18.1428 0.41344 18.5274C0.560021 18.9121 0.79849 19.255 1.10809 19.5263C1.41769 19.7976 1.78897 19.989 2.18954 20.0838C2.59012 20.1785 3.00783 20.1739 3.40616 20.0701C3.80452 19.9663 4.1714 19.7666 4.47478 19.4884C4.93754 19.045 5.48321 18.6973 6.08054 18.4652C6.6779 18.2331 7.31517 18.121 7.95587 18.1356C8.59656 18.1501 9.22812 18.2909 9.81432 18.5499C10.4005 18.8089 10.9299 19.181 11.372 19.6449C11.6603 19.9394 12.0164 20.1586 12.4091 20.2836C12.8018 20.4086 13.219 20.4354 13.6245 20.3618C14.03 20.2882 14.4112 20.1164 14.7349 19.8614C15.0585 19.6063 15.3148 19.2759 15.4813 18.8989C15.6477 18.5219 15.7192 18.1099 15.6896 17.6989C15.66 17.2879 15.5301 16.8904 15.3113 16.5412C15.0925 16.192 14.7915 15.9017 14.4346 15.6957C14.0777 15.4898 13.6757 15.3744 13.2639 15.3597Z" fill="white"/>
<path d="M39.5151 20.3469C40.8669 20.4295 41.7395 19.9903 42.1328 19.0293C42.2666 18.6657 42.3788 18.1986 42.4695 17.628L41.749 17.556C41.5597 18.8269 41.196 19.4553 40.6579 19.4409C40.2527 19.379 40.0773 18.9036 40.1317 18.0147L40.4868 12.2094C40.6284 9.89465 39.6415 8.40309 37.5263 7.73469C36.9787 7.57109 36.3808 7.46946 35.7327 7.42982C33.2143 7.27579 31.5976 7.72523 30.8827 8.77814C30.699 9.04571 30.5976 9.3369 30.5783 9.6517C30.5341 10.3739 30.849 10.8485 31.5228 11.0756C31.6861 11.1414 31.8603 11.1799 32.0455 11.1912C32.8417 11.2399 33.4025 10.8839 33.7279 10.1231C33.7717 10.0143 33.8386 9.83252 33.9285 9.5778C34.1775 8.84955 34.4651 8.40246 34.7912 8.23654C35.0006 8.15641 35.2349 8.12427 35.4941 8.14013C36.3644 8.19336 36.8599 8.75339 36.9805 9.82024C37.0308 10.2136 37.0396 10.6789 37.0067 11.2159L36.8963 13.0214C32.1315 12.8229 29.6657 13.936 29.4988 16.3607C29.398 18.0088 30.0557 19.1084 31.4717 19.6597C31.8897 19.8154 32.358 19.9091 32.8765 19.9408C34.4505 20.0371 35.6441 19.5153 36.4573 18.3755C36.6202 18.1438 36.7558 17.9012 36.8643 17.6476C37.1557 19.2639 38.0393 20.1637 39.5151 20.3469ZM34.3939 18.8348C33.4703 18.7411 33.0485 17.8882 33.1285 16.276C33.2032 15.0538 33.7519 14.2881 34.7745 13.9789C35.3218 13.8451 36.0131 13.7852 36.8487 13.7991L36.6839 16.4934C36.2528 17.7682 35.6393 18.5299 34.8434 18.7786C34.6734 18.824 34.5235 18.8427 34.3939 18.8348Z" fill="white"/>
<path d="M50.2425 19.9993L48.187 19.8735L48.554 13.8738C48.8026 11.9373 49.3472 10.7811 50.1881 10.405C50.3211 10.3574 50.4432 10.337 50.5543 10.3438C50.758 10.3562 50.9672 10.5828 51.1818 11.0234C51.4789 11.6363 51.8174 12.0288 52.1972 12.2007C52.379 12.2676 52.581 12.3078 52.8032 12.3214C53.5439 12.3667 54.0932 12.0472 54.451 11.3627C54.5768 11.1288 54.6477 10.8822 54.6635 10.623C54.7202 9.69708 54.3022 9.08602 53.4095 8.78979C53.1907 8.72064 52.9609 8.67871 52.7202 8.66399C51.5721 8.59376 50.5351 8.98572 49.6093 9.83987C49.1932 10.2605 48.8675 10.7239 48.6321 11.2299L48.5956 8.63476L43.7347 8.33746L43.6905 9.05965L45.3016 9.15819L44.7477 18.2134C44.6979 19.0282 44.3455 19.4713 43.6906 19.5428C43.5032 19.5685 43.2891 19.574 43.0484 19.5593L43.0042 20.2814L50.865 20.7622C50.891 20.3363 50.7848 20.0975 50.5464 20.0457C50.4549 20.0216 50.3536 20.0061 50.2425 19.9993Z" fill="white"/>
<path d="M59.1778 15.2206C59.3364 12.6281 59.7525 10.99 60.4263 10.3063C60.8412 9.90417 61.4005 9.72463 62.1042 9.76767C63.2894 9.84016 64.0118 10.4884 64.2715 11.7125C64.4461 12.5038 64.4819 13.742 64.3788 15.4272C64.2135 18.1308 63.7574 19.8129 63.0107 20.4735C62.5796 20.8375 62.0399 20.9996 61.3918 20.96C60.2437 20.8898 59.5392 20.2519 59.2784 19.0464C59.1049 18.2365 59.0713 16.9612 59.1778 15.2206ZM62.2873 9.05397C60.0096 8.91466 58.2121 9.58538 56.8948 11.0661C55.975 12.1251 55.4698 13.3953 55.3792 14.8767C55.2512 16.9692 55.872 18.6707 57.2417 19.9813C58.3309 21.0144 59.6717 21.5797 61.2643 21.6771C63.4494 21.8107 65.2104 21.1285 66.5474 19.6304C67.5458 18.5019 68.0925 17.1599 68.1877 15.6044C68.3145 13.5304 67.6822 11.8653 66.2906 10.6092C65.2142 9.66979 63.8798 9.15137 62.2873 9.05397Z" fill="white"/>
<path d="M74.8805 21.5062L74.3805 21.4756L74.8466 14.3109C75.0472 12.8548 75.587 11.9306 76.466 11.5383C76.7146 11.4234 76.9593 11.3733 77.2001 11.388C77.8852 11.4299 78.3499 11.8858 78.5941 12.7558C78.6988 13.1711 78.7358 13.6287 78.7053 14.1287L78.3298 20.2674C78.2834 21.0266 78.0797 21.4695 77.7188 21.5961C77.5487 21.6415 77.3156 21.6551 77.0193 21.637L76.9751 22.3592L82.8638 22.7194C82.8898 22.2935 82.7836 22.0546 82.5452 22.0029C82.4352 21.9775 82.3246 21.9615 82.2135 21.9547L81.7413 21.9258L82.1763 14.815L82.1881 14.6205C82.4118 13.0915 82.9701 12.1684 83.8631 11.8513C84.0528 11.7885 84.2402 11.7628 84.4254 11.7741C85.2217 11.8228 85.7391 12.3285 85.9776 13.291C86.0649 13.6867 86.0944 14.116 86.0661 14.5789L85.6906 20.7176C85.6442 21.4768 85.4405 21.9197 85.0796 22.0464C84.9096 22.0917 84.6764 22.1053 84.3801 22.0872L84.336 22.8094L90.669 23.1968C90.6951 22.7708 90.5889 22.532 90.3504 22.4803C90.2404 22.4549 90.1299 22.4389 90.0188 22.4321L89.1022 22.376L89.5456 15.1263C89.6566 13.3116 89.1335 11.9878 87.9762 11.1549C87.4422 10.7691 86.8512 10.5564 86.203 10.5167C84.4057 10.4254 83.0105 11.2043 82.0174 12.8536C81.6534 11.5117 80.9168 10.6395 79.8076 10.2371C79.5158 10.1449 79.2218 10.0897 78.9255 10.0716C77.1467 9.9814 75.8006 10.7169 74.8873 12.2781L74.8724 10.2419L69.9282 9.93952L69.884 10.6617L71.495 10.7602L70.9412 19.8155C70.8891 20.6673 70.4621 21.1151 69.6602 21.159C69.5294 21.1696 69.39 21.1704 69.2418 21.1613L69.1976 21.8835L75.503 22.2692C75.529 21.8432 75.4228 21.6044 75.1843 21.5527C75.0929 21.5285 74.9916 21.513 74.8805 21.5062Z" fill="white"/>
<path d="M97.9907 22.9197L96.963 22.8568L97.6493 11.635L92.5106 11.3207L92.4665 12.0429L94.0775 12.1414L93.5237 21.1967C93.4738 22.0114 93.1215 22.4546 92.4666 22.526C92.2791 22.5517 92.065 22.5572 91.8243 22.5425L91.7801 23.2647L98.6132 23.6826C98.6392 23.2567 98.533 23.0179 98.2946 22.9661C98.2031 22.942 98.1018 22.9265 97.9907 22.9197ZM98.1219 8.01155C98.1717 7.19677 97.8474 6.57286 97.149 6.13981C96.8455 5.93538 96.5179 5.8224 96.166 5.80088C95.3698 5.75218 94.7459 6.07647 94.2943 6.77375C94.1084 7.07836 94.0047 7.40658 93.9832 7.75842C93.9333 8.5732 94.2582 9.18786 94.9577 9.60239C95.2623 9.7883 95.5813 9.89145 95.9146 9.91184C96.7294 9.96167 97.3522 9.6559 97.783 8.99453C97.9874 8.69105 98.1004 8.36339 98.1219 8.01155Z" fill="white"/>
<path d="M99.3076 23.7251L103.502 23.9816L103.546 23.2595L101.602 23.1405L105.19 19.1779L107.713 23.5143L106.185 23.4208L106.141 24.143L112.557 24.5355C112.583 24.1096 112.449 23.869 112.155 23.8139C112.082 23.7908 111.999 23.7765 111.907 23.7708L111.351 23.7368L107.67 17.3779L110.639 13.9629C111.04 13.4856 111.529 13.2367 112.106 13.2163C112.386 13.1962 112.56 13.0953 112.627 12.9135C112.652 12.8035 112.669 12.6837 112.677 12.5541L108.566 12.3027L108.521 13.0249L110.327 13.1353L107.24 16.6546L105.022 12.8108L106.549 12.9043L106.593 12.1821L100.149 11.7879L100.105 12.5101L101.383 12.5883L104.814 18.4858L101.29 22.3129C100.873 22.7521 100.383 23.001 99.8223 23.0596C99.5619 23.0622 99.407 23.1643 99.3575 23.3657C99.3322 23.4757 99.3155 23.5955 99.3076 23.7251Z" fill="white"/>
</svg>
