<svg width="127" height="33" viewBox="0 0 127 33" fill="none" xmlns="http://www.w3.org/2000/svg">
<path d="M5.79064 8.59013L8.97422 7.00473L7.43948 3.92834L23.5825 4.91568L14.6585 18.4027L13.1241 15.3212L9.94021 16.9118L14.2243 25.502L29.9499 1.73967L1.50656 0L5.79064 8.59013Z" fill="white"/>
<path d="M41.4773 22.6384L48.5079 8.44538L45.5734 8.2659L40.5978 18.5737L36.8947 7.73509L33.9602 7.5556L39.2087 22.4997L41.4773 22.6384Z" fill="white"/>
<path d="M51.9793 8.6577L51.0883 23.2263L61.9314 23.8895L62.0893 21.3087L54.035 20.8161L54.2488 17.3197L61.0544 17.7359L61.2123 15.1552L54.4067 14.7389L54.6103 11.409L62.5606 11.8952L62.7184 9.31453L51.9793 8.6577Z" fill="white"/>
<path d="M66.8243 9.56566L65.9332 24.1342L68.7221 24.3048L69.0365 19.1642L72.4289 19.3717L75.1739 24.6994L78.2749 24.8891L75.2886 19.0661C77.0202 18.42 78.2005 16.8836 78.3163 14.9897C78.3978 13.6577 77.9879 12.5046 77.0644 11.5498C76.1618 10.5963 75.0035 10.0659 73.5675 9.97809L66.8243 9.56566ZM73.4096 12.5588C74.6375 12.6339 75.4777 13.5836 75.4026 14.8115C75.3275 16.0394 74.3766 16.9004 73.1487 16.8253L69.1943 16.5835L69.4553 12.3169L73.4096 12.5588Z" fill="white"/>
<path d="M86.4655 13.3573L85.7323 25.3452L88.542 25.517L89.2752 13.5292L94.1036 13.8245L94.2615 11.2438L81.795 10.4813L81.6371 13.062L86.4655 13.3573Z" fill="white"/>
<path d="M98.0589 11.476L97.1678 26.0446L108.011 26.7078L108.169 24.1271L100.115 23.6345L100.328 20.138L107.134 20.5543L107.292 17.9735L100.486 17.5573L100.69 14.2273L108.64 14.7136L108.798 12.1329L98.0589 11.476Z" fill="white"/>
<path d="M116.859 19.7912L110.993 26.8902L114.344 27.0951L118.384 22.1824L121.795 27.5508L125.125 27.7545L120.189 19.9949L125.807 13.1732L122.477 12.9696L118.664 17.6037L115.443 12.5393L112.092 12.3344L116.859 19.7912Z" fill="white"/>
</svg>
